# WaveFront *.obj file (generated by CINEMA 4D)

mtllib ./knight2.mtl

v 20.08838772570538 16.87637083177580 21.39959818327901
v 27.47444587329694 17.79727936154309 22.32050671304631
v 20.08838772570538 16.08087570294093 22.19509331211388
v 27.47444587329694 17.00178423270823 23.11600184188118
v 19.93565366201052 16.99288215365947 22.50807570567637
v 27.32171180960208 17.91379068342677 23.42898423544366
v 19.89793146348501 17.81715320260177 21.98635191605292
v 27.28398961107657 18.73806173236906 22.90726044582021
v 20.00362671501117 17.93299593784907 21.02279059805581
v 27.38968486260273 18.85390446761636 21.94369912782311
v 20.17314873639959 17.25317841699900 20.34297307720575
v 27.55920688399115 18.17408694676630 21.26388160697304
v 20.27884398792575 16.28961709900189 20.45881581245304
v 27.66490213551732 17.21052562876919 21.37972434222034
v 20.24112178940024 15.76789330937844 21.28308686139534
v 27.62717993699180 16.68880183914574 22.20399539116264
# 16 vertices

vn 0.00000000000000 -1.00000000000000 0.00000000000000
vn 0.00000000000000 0.00000000000000 0.00000000000000
vn 1.00000000000000 0.00000000000000 0.00000000000000
vn 0.62348981804751 0.00000000000000 0.78183146955791
vn 0.00000000000000 1.00000000000000 0.00000000000000
vn -0.22252090522612 0.00000000000000 0.97492791873930
vn -0.90096885771235 0.00000000000000 0.43388376027746
vn -0.90096885771235 0.00000000000000 -0.43388376027746
vn -0.22252090522612 0.00000000000000 -0.97492791873930
vn 0.62348981804751 0.00000000000000 -0.78183146955791
# 10 normals

vt 0.50000000000000 -0.50000000000000 0.00000000000000
vt 0.00000000000000 -0.50000000000000 0.00000000000000
vt 0.18825510144234 -0.10908424854279 0.00000000000000
vt 0.00000000000000 -1.00000000000000 0.00000000000000
vt 0.00000000000000 -0.00000000000000 0.00000000000000
vt 0.14285714924335 -0.00000000000000 0.00000000000000
vt 0.14285714924335 -1.00000000000000 0.00000000000000
vt 1.00000000000000 -0.50000000000000 0.00000000000000
vt 0.81174492835999 -0.10908424854279 0.00000000000000
vt 0.61126047372818 -0.01253604330122 0.00000000000000
vt 0.28571429848671 -0.00000000000000 0.00000000000000
vt 0.28571429848671 -1.00000000000000 0.00000000000000
vt 0.38873952627182 -0.01253604330122 0.00000000000000
vt 0.95048445463181 -0.28305810689926 0.00000000000000
vt 0.42857143282890 -0.00000000000000 0.00000000000000
vt 0.42857143282890 -1.00000000000000 0.00000000000000
vt 0.04951556771994 -0.28305810689926 0.00000000000000
vt 0.95048445463181 -0.71694183349609 0.00000000000000
vt 0.57142859697342 -0.00000000000000 0.00000000000000
vt 0.57142859697342 -1.00000000000000 0.00000000000000
vt 0.04951556771994 -0.71694183349609 0.00000000000000
vt 0.61126047372818 -0.98746395111084 0.00000000000000
vt 0.71428573131561 -0.00000000000000 0.00000000000000
vt 0.71428573131561 -1.00000000000000 0.00000000000000
vt 0.38873952627182 -0.98746395111084 0.00000000000000
vt 0.18825510144234 -0.89091575145721 0.00000000000000
vt 0.85714286565781 -0.00000000000000 0.00000000000000
vt 0.85714286565781 -1.00000000000000 0.00000000000000
vt 0.81174492835999 -0.89091575145721 0.00000000000000
vt 1.00000000000000 -0.00000000000000 0.00000000000000
vt 1.00000000000000 -1.00000000000000 0.00000000000000
# 31 texture coordinates

o Cylinder.1
usemtl Mat.5
f 1/1/1 3/2/1 5/3/1
f 3/4/3 4/5/3 6/6/4 5/7/4
f 4/8/5 2/1/5 6/9/5
f 1/1/1 5/3/1 7/10/1
f 5/7/4 6/6/4 8/11/6 7/12/6
f 6/9/5 2/1/5 8/13/5
f 1/1/1 7/10/1 9/14/1
f 7/12/6 8/11/6 10/15/7 9/16/7
f 8/13/5 2/1/5 10/17/5
f 1/1/1 9/14/1 11/18/1
f 9/16/7 10/15/7 12/19/8 11/20/8
f 10/17/5 2/1/5 12/21/5
f 1/1/1 11/18/1 13/22/1
f 11/20/8 12/19/8 14/23/9 13/24/9
f 12/21/5 2/1/5 14/25/5
f 1/1/1 13/22/1 15/26/1
f 13/24/9 14/23/9 16/27/10 15/28/10
f 14/25/5 2/1/5 16/29/5
f 1/1/1 15/26/1 3/2/1
f 15/28/10 16/27/10 4/30/3 3/31/3
f 16/29/5 2/1/5 4/8/5

v 24.82330586550277 13.15863965473933 17.68186700624256
v 19.61386053549486 34.04956686433989 38.57279421584313
v 25.93121458764151 13.29677593420442 17.82000328570765
v 20.72176925763360 34.18770314380499 38.71093049530823
v 25.51407565514661 12.62282308037947 18.38993670362882
v 20.30463032513870 33.51375028998003 39.28086391322938
v 24.57677298191412 12.35235103571372 18.42667919742853
v 19.36732765190620 33.24327824531429 39.31760640702909
v 23.82511459837822 12.68903076646473 17.90256291986532
v 18.61566926837031 33.57995797606531 38.79349012946588
v 23.82511459837822 13.37933556836208 17.21225811796797
v 18.61566926837031 34.27026277796266 38.10318532756853
v 24.57677298191412 13.90345184592529 16.87557838721695
v 19.36732765190620 34.79437905552587 37.76650559681752
v 25.51407565514661 13.86670935212558 17.14605043188270
v 20.30463032513870 34.75763656172615 38.03697764148326
# 16 vertices

vn 1.00000000000000 0.00000000000000 0.00000000000000
vn 0.62348981804751 0.00000000000000 0.78183146955791
# 2 normals

# 0 texture coordinate

o Cylinder
usemtl Mat.4
f 17/1/1 19/2/1 21/3/1
f 19/4/11 20/5/11 22/6/12 21/7/12
f 20/8/5 18/1/5 22/9/5
f 17/1/1 21/3/1 23/10/1
f 21/7/12 22/6/12 24/11/6 23/12/6
f 22/9/5 18/1/5 24/13/5
f 17/1/1 23/10/1 25/14/1
f 23/12/6 24/11/6 26/15/7 25/16/7
f 24/13/5 18/1/5 26/17/5
f 17/1/1 25/14/1 27/18/1
f 25/16/7 26/15/7 28/19/8 27/20/8
f 26/17/5 18/1/5 28/21/5
f 17/1/1 27/18/1 29/22/1
f 27/20/8 28/19/8 30/23/9 29/24/9
f 28/21/5 18/1/5 30/25/5
f 17/1/1 29/22/1 31/26/1
f 29/24/9 30/23/9 32/27/10 31/28/10
f 30/25/5 18/1/5 32/29/5
f 17/1/1 31/26/1 19/2/1
f 31/28/10 32/27/10 20/30/11 19/31/11
f 32/29/5 18/1/5 20/8/5

v 21.77446239413878 10.96162113391102 20.50284496015625
v 18.30149884080020 24.88890594031140 6.57556015375586
v 26.69850115919983 11.57556015375588 19.88890594031139
v 23.22553760586125 25.50284496015626 5.96162113391101
v 26.69850115919983 15.11109405968862 23.42443984624413
v 23.22553760586125 29.03837886608900 9.49715503984374
v 21.77446239413878 14.49715503984376 24.03837886608899
v 18.30149884080020 28.42443984624414 10.11109405968860
# 8 vertices

vn 0.00000000000000 0.00000000000000 -1.00000000000000
vn 0.00000000000000 0.00000000000000 1.00000000000000
vn -1.00000000000000 0.00000000000000 0.00000000000000
# 3 normals

# 0 texture coordinate

o Cube.3
usemtl Mat.1
f 33/4/13 34/5/13 36/30/13 35/31/13
f 35/4/11 36/5/11 38/30/11 37/31/11
f 37/4/14 38/5/14 40/30/14 39/31/14
f 39/4/15 40/5/15 34/30/15 33/31/15
f 34/4/5 40/5/5 38/30/5 36/31/5
f 39/4/1 33/5/1 35/30/1 37/31/1

v -6.69850115919981 10.58604291404524 7.50000000000000
v -3.22553760586124 30.28219797428941 7.50000000000000
v -1.77446239413876 9.71780202571060 7.50000000000000
v 1.69850115919981 29.41395708595477 7.50000000000000
v -1.77446239413876 9.71780202571060 12.50000000000000
v 1.69850115919981 29.41395708595477 12.50000000000000
v -6.69850115919981 10.58604291404524 12.50000000000000
v -3.22553760586124 30.28219797428941 12.50000000000000
# 8 vertices

# 0 normal

# 0 texture coordinate

o Cube.2
usemtl Mat.1
f 41/4/13 42/5/13 44/30/13 43/31/13
f 43/4/11 44/5/11 46/30/11 45/31/11
f 45/4/14 46/5/14 48/30/14 47/31/14
f 47/4/15 48/5/15 42/30/15 41/31/15
f 42/4/5 48/5/5 46/30/5 44/31/5
f 47/4/1 41/5/1 43/30/1 45/31/1

v 0.00000000000000 0.00000000000000 5.00000000000000
v 0.00000000000000 30.00000000000000 5.00000000000000
v 20.00000000000000 0.00000000000000 5.00000000000000
v 20.00000000000000 30.00000000000000 5.00000000000000
v 20.00000000000000 0.00000000000000 15.00000000000000
v 20.00000000000000 30.00000000000000 15.00000000000000
v 0.00000000000000 0.00000000000000 15.00000000000000
v 0.00000000000000 30.00000000000000 15.00000000000000
# 8 vertices

# 0 normal

# 0 texture coordinate

o Cube.1
usemtl Mat.3
f 49/4/13 50/5/13 52/30/13 51/31/13

usemtl Mat.1
f 51/4/11 52/5/11 54/30/11 53/31/11
f 55/4/15 56/5/15 50/30/15 49/31/15

usemtl Mat.2
f 53/4/14 54/5/14 56/30/14 55/31/14

usemtl default
f 50/4/5 56/5/5 54/30/5 52/31/5
f 55/4/1 49/5/1 51/30/1 53/31/1

v 0.00000000000000 30.00000000000000 0.00000000000000
v 0.00000000000000 50.00000000000000 0.00000000000000
v 20.00000000000000 30.00000000000000 0.00000000000000
v 20.00000000000000 50.00000000000000 0.00000000000000
v 20.00000000000000 30.00000000000000 20.00000000000000
v 20.00000000000000 50.00000000000000 20.00000000000000
v 0.00000000000000 30.00000000000000 20.00000000000000
v 0.00000000000000 50.00000000000000 20.00000000000000
# 8 vertices

# 0 normal

# 0 texture coordinate

o Cube
usemtl Mat.1
f 57/4/13 58/5/13 60/30/13 59/31/13
f 59/4/11 60/5/11 62/30/11 61/31/11
f 63/4/15 64/5/15 58/30/15 57/31/15
f 58/4/5 64/5/5 62/30/5 60/31/5
f 63/4/1 57/5/1 59/30/1 61/31/1

usemtl Mat
f 61/4/14 62/5/14 64/30/14 63/31/14

