# WaveFront *.obj file (generated by CINEMA 4D)

mtllib ./World.mtl

v -100.00000000000000 -5.00000000000000 -250.00000000000000
v -100.00000000000000 5.00000000000000 -250.00000000000000
v 100.00000000000000 -5.00000000000000 -250.00000000000000
v 100.00000000000000 5.00000000000000 -250.00000000000000
v 100.00000000000000 -5.00000000000000 250.00000000000000
v 100.00000000000000 5.00000000000000 250.00000000000000
v -100.00000000000000 -5.00000000000000 250.00000000000000
v -100.00000000000000 5.00000000000000 250.00000000000000
# 8 vertices

vn 0.00000000000000 0.00000000000000 -1.00000000000000
vn 1.00000000000000 0.00000000000000 0.00000000000000
vn 0.00000000000000 0.00000000000000 1.00000000000000
vn -1.00000000000000 0.00000000000000 0.00000000000000
vn 0.00000000000000 1.00000000000000 0.00000000000000
vn 0.00000000000000 -1.00000000000000 0.00000000000000
# 6 normals

vt 0.00908393692225 -0.99184131622314 0.00000000000000
vt 0.00908393692225 -0.97420489788055 0.00000000000000
vt 0.40181678533554 -0.97420489788055 0.00000000000000
vt 0.40181678533554 -0.99184131622314 0.00000000000000
vt 0.00908393692225 -0.92393386363983 0.00000000000000
vt 0.00908393692225 -0.90629744529724 0.00000000000000
vt 0.99091607332230 -0.90629744529724 0.00000000000000
vt 0.99091607332230 -0.92393386363983 0.00000000000000
vt 0.41998466849327 -0.99184131622314 0.00000000000000
vt 0.41998466849327 -0.97420489788055 0.00000000000000
vt 0.81271749734879 -0.97420489788055 0.00000000000000
vt 0.81271749734879 -0.99184131622314 0.00000000000000
vt 0.00908393692225 -0.95788764953613 0.00000000000000
vt 0.00908393692225 -0.94025123119354 0.00000000000000
vt 0.99091607332230 -0.94025123119354 0.00000000000000
vt 0.99091607332230 -0.95788764953613 0.00000000000000
vt 0.00908393692225 -0.88998019695282 0.00000000000000
vt 0.00908393692225 -0.00815863721073 0.00000000000000
vt 0.40181678533554 -0.00815863721073 0.00000000000000
vt 0.40181678533554 -0.88998019695282 0.00000000000000
vt 0.41998466849327 -0.88998019695282 0.00000000000000
vt 0.41998466849327 -0.00815863721073 0.00000000000000
vt 0.81271749734879 -0.00815863721073 0.00000000000000
vt 0.81271749734879 -0.88998019695282 0.00000000000000
# 24 texture coordinates

o Cube
usemtl Mat
f 1/1/1 2/2/1 4/3/1 3/4/1
f 3/5/2 4/6/2 6/7/2 5/8/2
f 5/9/3 6/10/3 8/11/3 7/12/3
f 7/13/4 8/14/4 2/15/4 1/16/4
f 2/17/5 8/18/5 6/19/5 4/20/5
f 7/21/6 1/22/6 3/23/6 5/24/6

